<svg width="80" height="80" viewBox="0 0 80 80" fill="none" xmlns="http://www.w3.org/2000/svg">
<circle cx="40" cy="40" r="40" fill="#003EF7"/>
<path d="M48.4645 79.1666C49.232 79.0173 49.995 78.8455 50.7525 78.6515C52.0374 78.2933 53.3036 77.8711 54.5463 77.3864C55.7917 76.9044 57.0122 76.3603 58.2032 75.7562C59.3939 75.1495 60.5535 74.4835 61.6776 73.7608C62.7999 73.0395 63.8855 72.2626 64.9303 71.4329C65.9777 70.6012 66.9829 69.7176 67.9419 68.7854C68.8983 67.8554 69.8077 66.8783 70.6667 65.8575C71.5276 64.8357 72.3369 63.7715 73.0916 62.6688C73.8454 61.5676 74.5437 60.4293 75.184 59.2584C75.8239 58.0861 76.4047 56.8826 76.9244 55.6523C77.4454 54.4219 77.9044 53.1661 78.2999 51.8898C78.6381 50.7727 78.9274 49.6413 79.1668 48.4989L55.3742 24.6977C51.1313 20.4532 45.5907 18.3333 40.0426 18.3333C34.4941 18.3333 28.9409 20.4529 24.6979 24.6977C16.212 33.1867 16.212 46.9025 24.6979 55.3915L48.4645 79.1666Z" fill="white"/>
<path fill-rule="evenodd" clip-rule="evenodd" d="M55.3139 24.6843C51.0786 20.4487 45.5418 18.3333 40.0034 18.3333C34.465 18.3333 28.9217 20.4487 24.6864 24.6843C16.2158 33.1553 16.2158 46.8423 24.6864 55.3134C33.157 63.7844 46.8433 63.7844 55.3139 55.3134C63.7845 46.8423 63.7845 33.1553 55.3139 24.6843ZM48.9958 33.6771C49.2457 33.4824 49.5522 33.3612 49.8677 33.3323L49.8677 33.3322C49.924 33.3294 49.9806 33.3294 50.0369 33.3322C51.4239 33.3521 52.115 35.5287 50.9934 36.345L37.6675 46.34C37.033 46.8135 36.0545 46.7432 35.4942 46.1838L28.8313 39.5205C27.5566 38.2966 29.9628 35.8902 31.1867 37.165L36.8281 42.8066L48.9958 33.6771Z" fill="#2C185A"/>
</svg>
